# xmcd CD database file
#
# Track frame offsets:
#	150
#	17433
#	37068
#	47898
#	63421
#	78137
#	94763
#	113639
#	124918
#	152876
#	166974
#
# Disc length: 2436 seconds
#
# Revision: 0
# Processed by: cddbd v1.4PL0 Copyright (c) Steve Scherf et al.
# Submitted via: CDex 1.50beta10
#
DISCID=8509820b
DTITLE=André Hodeir - Jazz and Jazz
DYEAR=1960
DGENRE=Jazz
TTITLE0=Flautando
TTITLE1=Jazz Cantata I, II, III
TTITLE2=Jazz Cantata IV
TTITLE3=Jazz Cantata V, VI, VII
TTITLE4=Trope à Saint-Trop
TTITLE5=Osymetrios I
TTITLE6=Le palais idéal I, II, III
TTITLE7=Le palais idéal IV
TTITLE8=Le palais idéal V, VI, VII
TTITLE9=Jazz et jazz
TTITLE10=Osymetrios II
EXTD=YEAR: 1960
EXTT0=
EXTT1=
EXTT2=
EXTT3=
EXTT4=
EXTT5=
EXTT6=
EXTT7=
EXTT8=
EXTT9=
EXTT10=
PLAYORDER=
